<?xml version="1.0" encoding="utf-8"?>
<!-- Generator: Adobe Illustrator 21.0.0, SVG Export Plug-In . SVG Version: 6.00 Build 0)  -->
<svg version="1.1" id="Layer_1" xmlns="http://www.w3.org/2000/svg" xmlns:xlink="http://www.w3.org/1999/xlink" x="0px" y="0px"
	 viewBox="0 0 188 56" style="enable-background:new 0 0 188 56;" xml:space="preserve">
<style type="text/css">
	.st0{fill:#4574A6;}
	.st1{fill:#FF8A00;}
</style>
<polygon class="st0" points="18.6,54.5 18.6,35 31.7,54.5 "/>
<path class="st0" d="M31.7,33l16.8,21.4h17.7L89.2,2H73.9L60.5,30.6L48.3,2H27.1c0,0,15,4.2,15.7,13.3C44.2,32,31.7,33,31.7,33z"/>
<g>
	<path class="st0" d="M85,34.7c1.2-0.2,2.9-0.4,4.6-0.4c2.5,0,4.2,0.5,5.3,1.5c0.9,0.8,1.5,2.1,1.5,3.5c0,2.4-1.5,4.1-3.5,4.7v0.1
		c1.4,0.5,2.3,1.8,2.7,3.7c0.6,2.6,1,4.4,1.4,5.1h-2.5c-0.3-0.5-0.7-2.1-1.2-4.4c-0.5-2.5-1.5-3.5-3.7-3.6h-2.2v8H85V34.7z
		 M87.4,43.1h2.4c2.5,0,4.2-1.4,4.2-3.5c0-2.4-1.7-3.4-4.2-3.4c-1.1,0-2,0.1-2.4,0.2V43.1z"/>
	<path class="st0" d="M101.1,46.7c0.1,3.3,2.1,4.6,4.5,4.6c1.7,0,2.8-0.3,3.7-0.7l0.4,1.7c-0.8,0.4-2.3,0.8-4.4,0.8
		c-4.1,0-6.5-2.7-6.5-6.7c0-4,2.4-7.1,6.2-7.1c4.3,0,5.5,3.8,5.5,6.2c0,0.5-0.1,0.9-0.1,1.1H101.1z M108.2,44.9
		c0-1.5-0.6-3.9-3.3-3.9c-2.4,0-3.5,2.2-3.7,3.9H108.2z"/>
	<path class="st0" d="M116.4,35.8v3.8h3.4v1.8h-3.4v7.1c0,1.6,0.5,2.6,1.8,2.6c0.6,0,1.1-0.1,1.4-0.2l0.1,1.8
		c-0.5,0.2-1.2,0.3-2.1,0.3c-1.1,0-2-0.4-2.6-1c-0.7-0.7-0.9-1.9-0.9-3.4v-7.2H112v-1.8h2.1v-3.2L116.4,35.8z"/>
	<path class="st0" d="M125.3,35.9c0,0.8-0.6,1.5-1.5,1.5c-0.8,0-1.5-0.7-1.5-1.5c0-0.8,0.6-1.5,1.5-1.5
		C124.7,34.4,125.3,35,125.3,35.9z M122.6,52.9V39.6h2.4v13.2H122.6z"/>
	<path class="st0" d="M129,43.2c0-1.4,0-2.5-0.1-3.6h2.1l0.1,2.2h0.1c0.7-1.3,2.2-2.5,4.4-2.5c1.8,0,4.7,1.1,4.7,5.6v7.9h-2.4v-7.6
		c0-2.1-0.8-3.9-3.1-3.9c-1.6,0-2.8,1.1-3.2,2.5c-0.1,0.3-0.2,0.7-0.2,1.1v8H129V43.2z"/>
	<path class="st0" d="M151.5,52.9l-0.2-1.7h-0.1c-0.7,1-2.2,2-4.1,2c-2.7,0-4.1-1.9-4.1-3.8c0-3.2,2.8-5,8-4.9v-0.3
		c0-1.1-0.3-3.1-3-3.1c-1.2,0-2.5,0.4-3.4,1l-0.5-1.6c1.1-0.7,2.7-1.2,4.4-1.2c4.1,0,5,2.8,5,5.4v5c0,1.1,0.1,2.3,0.2,3.2H151.5z
		 M151.1,46.1c-2.6-0.1-5.6,0.4-5.6,3c0,1.6,1,2.3,2.3,2.3c1.7,0,2.8-1.1,3.2-2.2c0.1-0.2,0.1-0.5,0.1-0.8V46.1z"/>
	<path class="st1" d="M161.5,52.9l-6-18.4h2.6l2.9,9.1c0.8,2.5,1.5,4.7,2,6.9h0.1c0.5-2.1,1.3-4.5,2.1-6.9l3.1-9.1h2.5l-6.6,18.4
		H161.5z"/>
	<path class="st1" d="M183.2,49.2c0,1.4,0,2.6,0.1,3.6h-2.1l-0.1-2.2H181c-0.6,1.1-2,2.5-4.4,2.5c-2.1,0-4.6-1.1-4.6-5.8v-7.7h2.4
		v7.3c0,2.5,0.8,4.2,3,4.2c1.6,0,2.7-1.1,3.2-2.2c0.1-0.4,0.2-0.8,0.2-1.2v-8.1h2.4V49.2z"/>
</g>
<rect x="21.9" y="24" class="st1" width="6.7" height="6.8"/>
<rect x="21.9" y="15.4" class="st0" width="6.7" height="6.8"/>
<rect x="21.9" y="6.7" class="st0" width="6.7" height="6.8"/>
<rect x="13.3" y="24" class="st0" width="6.7" height="6.8"/>
<rect x="13.3" y="15.4" class="st0" width="6.7" height="6.8"/>
<rect x="4.4" y="24" class="st0" width="7.1" height="6.8"/>
</svg>
