<?xml version="1.0" encoding="utf-8"?>
<!-- Generator: Adobe Illustrator 21.0.0, SVG Export Plug-In . SVG Version: 6.00 Build 0)  -->
<svg version="1.1" id="Isolation_Mode" xmlns="http://www.w3.org/2000/svg" xmlns:xlink="http://www.w3.org/1999/xlink" x="0px"
	 y="0px" viewBox="0 0 35 10" style="enable-background:new 0 0 35 10;" xml:space="preserve">
<style type="text/css">
	.st0{fill:#FF8A00;}
	.st1{fill:#FFFFFF;}
</style>
<g>
	<g>
		<path class="st0" d="M14.2,2.5h-0.9V2.4c0-0.3-0.1-0.4-0.2-0.5c-0.1-0.1-0.3-0.1-0.7-0.1s-0.7,0-0.9,0.1c-0.1,0.1-0.2,0.2-0.2,0.5
			s0.1,0.5,0.2,0.6c0.1,0.1,0.5,0.1,1.1,0.1c0.7,0,1.2,0.1,1.4,0.3s0.3,0.5,0.3,1c0,0.6-0.1,1.1-0.4,1.2C13.7,5.9,13.1,6,12.3,6
			S11,5.9,10.8,5.7c-0.2-0.2-0.4-0.6-0.4-1.1V4.4h0.9v0.1c0,0.3,0.1,0.5,0.2,0.6c0.1,0.1,0.4,0.1,1,0.1c0.4,0,0.7,0,0.8-0.1
			s0.2-0.3,0.2-0.6c0-0.2,0-0.4-0.1-0.5c-0.2,0-0.4,0-0.7-0.1h-0.5c-0.8,0-1.3-0.2-1.5-0.3c-0.2-0.2-0.3-0.5-0.3-1.1
			s0.1-0.9,0.4-1.1c0.3-0.2,0.8-0.3,1.5-0.3s1.2,0.1,1.5,0.3s0.4,0.5,0.4,1C14.2,2.4,14.2,2.5,14.2,2.5z"/>
		<path class="st0" d="M17,4.9h0.8V5c0,0.7-0.5,1-1.5,1c-0.7,0-1.1-0.1-1.3-0.3c-0.2-0.2-0.3-0.7-0.3-1.5c0-0.7,0.1-1.1,0.3-1.3
			s0.6-0.3,1.3-0.3c0.6,0,1,0.1,1.2,0.3s0.3,0.7,0.3,1.3v0.2h-2.3c0,0.1,0,0.1,0,0.1c0,0.3,0.1,0.6,0.2,0.7c0.1,0.1,0.3,0.2,0.6,0.2
			c0.3,0,0.5,0,0.6-0.1C17,5.2,17,5.1,17,4.9z M17,3.9L17,3.9c0-0.4,0-0.5-0.1-0.6s-0.3-0.1-0.6-0.1c-0.3,0-0.5,0-0.6,0.1
			s-0.1,0.3-0.1,0.6H17z"/>
		<path class="st0" d="M21.3,2.6l-1,3.4H19l-1-3.4h0.9l0.4,1.6c0.1,0.2,0.1,0.4,0.2,0.6l0.1,0.3l0.1,0.3l0,0l0.1-0.3l0.1-0.3
			C20,4.6,20,4.4,20.1,4.2l0.4-1.6H21.3z"/>
		<path class="st0" d="M23.6,1.1c0.9,0,1.4,0.1,1.7,0.4c0.3,0.3,0.4,0.9,0.4,2s-0.1,1.8-0.4,2.1C25,5.9,24.4,6,23.5,6
			S22,5.9,21.8,5.6c-0.3-0.3-0.4-0.9-0.4-1.9c0-1.2,0.1-1.9,0.4-2.2C22,1.2,22.6,1.1,23.6,1.1z M23.5,1.9c-0.6,0-1,0.1-1.1,0.2
			c-0.1,0.2-0.2,0.7-0.2,1.6c0,0.7,0.1,1.1,0.2,1.3c0.1,0.1,0.5,0.2,1.1,0.2s0.9-0.1,1-0.2c0.1-0.2,0.2-0.6,0.2-1.5
			c0-0.8-0.1-1.3-0.2-1.4C24.5,1.9,24.1,1.9,23.5,1.9z"/>
		<path class="st0" d="M26.2,2.6H27v0.6l0,0c0.2-0.4,0.5-0.6,1.1-0.6c0.8,0,1.2,0.4,1.2,1.1V6h-0.8V4V3.8V3.6c0-0.3-0.2-0.4-0.6-0.4
			C27.3,3.2,27,3.4,27,4v2h-0.8V2.6z"/>
		<path class="st0" d="M32.2,4.9H33V5c0,0.7-0.5,1-1.5,1c-0.7,0-1.1-0.1-1.3-0.3C30,5.4,29.9,5,29.9,4.2c0-0.7,0.1-1.1,0.3-1.3
			c0.2-0.2,0.6-0.3,1.3-0.3c0.6,0,1,0.1,1.2,0.3C32.9,3.1,33,3.5,33,4.2v0.2h-2.3c0,0.1,0,0.1,0,0.1c0,0.3,0.1,0.6,0.2,0.7
			s0.3,0.2,0.6,0.2c0.3,0,0.5,0,0.6-0.1C32.1,5.2,32.2,5.1,32.2,4.9z M32.2,3.9L32.2,3.9c0-0.4,0-0.5-0.1-0.6s-0.3-0.1-0.6-0.1
			c-0.3,0-0.5,0-0.6,0.1s-0.1,0.3-0.1,0.6H32.2z"/>
	</g>
</g>
<rect x="7.2" y="6.7" class="st0" width="2.2" height="2.2"/>
<rect x="7.2" y="3.9" class="st1" width="2.2" height="2.2"/>
<rect x="7.2" y="1" class="st1" width="2.2" height="2.2"/>
<rect x="4.4" y="6.7" class="st1" width="2.2" height="2.2"/>
<rect x="4.4" y="3.9" class="st1" width="2.2" height="2.2"/>
<rect x="1.5" y="6.7" class="st1" width="2.3" height="2.2"/>
<g>
	<path class="st1" d="M12.2,8.9h-0.6l-0.5-0.7H11v0.7h-0.5V7.1h0.7c0.1,0,0.2,0,0.3,0s0.1,0,0.2,0.1c0.1,0,0.1,0.1,0.2,0.2
		c0,0.1,0.1,0.1,0.1,0.2s0,0.3-0.1,0.3c-0.1,0.1-0.1,0.2-0.3,0.2L12.2,8.9z M11.5,7.6L11.5,7.6c0-0.1,0-0.2-0.1-0.2h-0.1h-0.1H11
		v0.5h0.1c0.1,0,0.1,0,0.2,0h0.1l0.1-0.1C11.5,7.7,11.5,7.7,11.5,7.6z"/>
	<path class="st1" d="M13.7,8.9V7.1h1.2v0.3h-0.8v0.3h0.7V8h-0.7v0.5h0.8v0.3L13.7,8.9L13.7,8.9z"/>
	<path class="st1" d="M16.9,8.9V7.4h-0.5V7.1h1.5v0.3h-0.5v1.5H16.9z"/>
	<path class="st1" d="M20.3,8.9h-1V8.6h0.3V7.4h-0.3V7.1h1v0.3H20v1.2h0.3V8.9z"/>
	<path class="st1" d="M23.5,8.9h-0.4l-0.7-1.3v1.3H22V7.1h0.6l0.6,1v-1h0.4v1.8H23.5z"/>
	<path class="st1" d="M25,8.9l0.6-1.8h0.5l0.6,1.8h-0.5l-0.1-0.4h-0.6l-0.1,0.4H25z M26.1,8.2l-0.2-0.6l-0.2,0.6H26.1z"/>
	<path class="st1" d="M29.8,7.1l-0.6,1.8h-0.5l-0.6-1.8h0.5L29,8.3l0.4-1.2C29.4,7.1,29.8,7.1,29.8,7.1z"/>
	<path class="st1" d="M32.1,8.9c-0.2,0-0.4-0.1-0.6-0.2s-0.2-0.3-0.2-0.5V7.1h0.5v1.1c0,0.1,0,0.2,0.1,0.3c0,0.1,0.1,0.1,0.2,0.1
		c0.1,0,0.2,0,0.2-0.1s0.1-0.2,0.1-0.3V7.1h0.5v1.2c0,0.2-0.1,0.4-0.2,0.5C32.5,8.9,32.3,8.9,32.1,8.9z"/>
</g>
</svg>

