<?xml version="1.0" encoding="utf-8"?>
<!-- Generator: Adobe Illustrator 21.0.0, SVG Export Plug-In . SVG Version: 6.00 Build 0)  -->
<svg version="1.0" id="Layer_1" xmlns="http://www.w3.org/2000/svg" xmlns:xlink="http://www.w3.org/1999/xlink" x="0px" y="0px"
	 viewBox="0 0 14 14" enable-background="new 0 0 14 14" xml:space="preserve">
<path fill="#CCCCCC" d="M13.5,6.4c0.3-0.3,0.4-0.6,0.2-1C13.7,5,13.4,4.8,13,4.7L9.7,4.2C9.5,4.2,9.4,4.1,9.4,4L7.9,1
	C7.7,0.7,7.4,0.5,7,0.5C6.6,0.5,6.3,0.7,6.1,1L4.6,4C4.6,4.1,4.5,4.2,4.3,4.2L1,4.7C0.6,4.8,0.3,5,0.2,5.4c-0.1,0.4,0,0.7,0.2,1
	l2.4,2.3C3,8.8,3,9,3,9.1l-0.6,3.3c-0.1,0.4,0.1,0.7,0.4,1c0.3,0.2,0.7,0.2,1,0.1l3-1.6c0.1-0.1,0.3-0.1,0.4,0l3,1.6
	c0.1,0.1,0.3,0.1,0.5,0.1c0.2,0,0.4-0.1,0.6-0.2c0.3-0.2,0.5-0.6,0.4-1L11,9.1c0-0.1,0-0.3,0.1-0.4L13.5,6.4z M10.5,9.2l0.6,3.3
	c0,0.2,0,0.3-0.2,0.4c-0.1,0.1-0.3,0.1-0.5,0l-3-1.6c-0.1-0.1-0.3-0.1-0.5-0.1c-0.2,0-0.3,0-0.5,0.1l-3,1.6c-0.1,0.1-0.3,0.1-0.5,0
	C3,12.8,2.9,12.7,3,12.5l0.6-3.3c0.1-0.3-0.1-0.6-0.3-0.9L0.9,6C0.7,5.9,0.7,5.7,0.7,5.6c0.1-0.2,0.2-0.3,0.3-0.3l3.3-0.5
	c0.3,0,0.6-0.2,0.7-0.5l1.5-3C6.7,1.1,6.8,1,7,1c0.2,0,0.3,0.1,0.4,0.2l1.5,3C9,4.5,9.3,4.7,9.6,4.8l3.3,0.5c0.2,0,0.3,0.1,0.3,0.3
	c0.1,0.2,0,0.3-0.1,0.4l-2.4,2.3C10.5,8.6,10.4,8.9,10.5,9.2z"/>
</svg>
