<?xml version="1.0" encoding="utf-8"?>
<!-- Generator: Adobe Illustrator 21.0.0, SVG Export Plug-In . SVG Version: 6.00 Build 0)  -->
<svg version="1.0" id="Layer_1" xmlns="http://www.w3.org/2000/svg" xmlns:xlink="http://www.w3.org/1999/xlink" x="0px" y="0px"
	 viewBox="0 0 14 14" enable-background="new 0 0 14 14" xml:space="preserve">
<g>
	<g>
		<path fill="#FFCC33" d="M7,0C3.1,0,0,3.1,0,7c0,3.9,3.1,7,7,7c3.9,0,7-3.1,7-7C14,3.1,10.9,0,7,0z M6.3,9.1c0,0.4-0.4,0.8-0.8,0.8
			C5,9.9,4.7,9.5,4.7,9.1V4.9c0-0.4,0.4-0.8,0.8-0.8c0.4,0,0.8,0.4,0.8,0.8V9.1z M9.3,9.1c0,0.4-0.4,0.8-0.8,0.8
			C8,9.9,7.7,9.5,7.7,9.1V4.9c0-0.4,0.4-0.8,0.8-0.8s0.8,0.4,0.8,0.8V9.1z"/>
	</g>
</g>
<line fill="none" stroke="#FFFFFF" stroke-width="2" stroke-linecap="round" stroke-linejoin="round" stroke-miterlimit="10" x1="5.5" y1="4.4" x2="5.5" y2="9.6"/>
<line fill="none" stroke="#FFFFFF" stroke-width="2" stroke-linecap="round" stroke-linejoin="round" stroke-miterlimit="10" x1="8.5" y1="4.4" x2="8.5" y2="9.6"/>
</svg>
