<svg id="Layer_1" data-name="Layer 1" xmlns="http://www.w3.org/2000/svg" viewBox="0 0 30 25"><title>icons_url</title><path d="M21.34,15.23a8.49,8.49,0,0,0-.16-11.46h0a8.46,8.46,0,0,0-5.9-2.67h-.57a8.52,8.52,0,0,0-5.9,2.67h0a8.49,8.49,0,0,0-.16,11.46v0l0,0a8.47,8.47,0,0,0,6,2.83h.57a8.42,8.42,0,0,0,6-2.84,0,0,0,0,0,0,0ZM7.07,9.89h3.51a10.46,10.46,0,0,0,.72,3.58,10.85,10.85,0,0,0-2.38,1.21A8,8,0,0,1,7.07,9.89Zm2-5.56a10.86,10.86,0,0,0,2.32,1.14,11.16,11.16,0,0,0-.81,3.85H7.07A8,8,0,0,1,9.09,4.33Zm13.81,5H19.39a10.88,10.88,0,0,0-.81-3.85A10.86,10.86,0,0,0,20.9,4.32,8.1,8.1,0,0,1,22.9,9.31ZM14.7,5.49a10,10,0,0,1-2.48-.38A10.21,10.21,0,0,1,14.7,1.87Zm0,.57V9.31H11.19A10.17,10.17,0,0,1,12,5.65,10.43,10.43,0,0,0,14.7,6.06Zm.57,0A10.55,10.55,0,0,0,18,5.63a10.17,10.17,0,0,1,.78,3.66H15.27V6.06Zm0-.57V1.87a10.21,10.21,0,0,1,2.48,3.24A10.62,10.62,0,0,1,15.27,5.49Zm3.05-.56A10.76,10.76,0,0,0,16,1.76,7.89,7.89,0,0,1,20.45,3.9,10.15,10.15,0,0,1,18.32,4.94Zm-6.67,0a10.25,10.25,0,0,1-2.15-1A7.89,7.89,0,0,1,14,1.76,10.51,10.51,0,0,0,11.65,4.94Zm-.46,5H14.7v2.94a11.19,11.19,0,0,0-2.83.44A9.74,9.74,0,0,1,11.19,9.89Zm3.51,3.53v3.91a10.34,10.34,0,0,1-2.61-3.5A10.15,10.15,0,0,1,14.7,13.42Zm.57,3.91V13.42a10.26,10.26,0,0,1,2.61.41A10.14,10.14,0,0,1,15.27,17.33Zm0-4.5V9.89h3.51a10.29,10.29,0,0,1-.68,3.4A10.53,10.53,0,0,0,15.27,12.83Zm4.1-2.94h3.51A7.9,7.9,0,0,1,21,14.69a10.51,10.51,0,0,0-2.38-1.21A10.63,10.63,0,0,0,19.37,9.89Zm-10,5.23A10.66,10.66,0,0,1,11.54,14,10.74,10.74,0,0,0,14,17.44,7.92,7.92,0,0,1,9.33,15.12ZM16,17.44A10.82,10.82,0,0,0,18.45,14a9.93,9.93,0,0,1,2.21,1.11A8,8,0,0,1,16,17.44Z" style="fill:#999;stroke:#999;stroke-miterlimit:10;stroke-width:0.25px"/><line x1="14.98" y1="18.11" x2="14.98" y2="21.67" style="fill:#999;stroke:#999;stroke-miterlimit:10"/><circle cx="14.98" cy="22.78" r="1.11" style="fill:none;stroke:#ff8a00;stroke-miterlimit:10;stroke-width:0.5px"/><circle cx="11.9" cy="22.86" r="0.72" style="fill:none;stroke:#ff8a00;stroke-miterlimit:10;stroke-width:0.5px"/><circle cx="9.63" cy="22.78" r="0.72" style="fill:none;stroke:#ff8a00;stroke-miterlimit:10;stroke-width:0.5px"/><circle cx="7.36" cy="22.78" r="0.72" style="fill:none;stroke:#ff8a00;stroke-miterlimit:10;stroke-width:0.5px"/><circle cx="22.34" cy="22.91" r="0.72" style="fill:none;stroke:#ff8a00;stroke-miterlimit:10;stroke-width:0.5px"/><circle cx="20.07" cy="22.81" r="0.72" style="fill:none;stroke:#ff8a00;stroke-miterlimit:10;stroke-width:0.5px"/><circle cx="17.78" cy="22.81" r="0.72" style="fill:none;stroke:#ff8a00;stroke-miterlimit:10;stroke-width:0.5px"/></svg>