<svg id="Layer_1" data-name="Layer 1" xmlns="http://www.w3.org/2000/svg" viewBox="0 0 30 25"><title>icon_image</title><path d="M10.4,7a.15.15,0,0,1-.18.1h0a.15.15,0,0,1-.1-.18l.21-.7a.15.15,0,0,1,.18-.1h0a.15.15,0,0,1,.1.18Z" style="fill:#ff8a00"/><path d="M10.26,7.3h-.1a.34.34,0,0,1-.2-.17.34.34,0,0,1,0-.26l.21-.7a.35.35,0,1,1,.66.2l-.21.7A.35.35,0,0,1,10.26,7.3Z" style="fill:#ff8a00"/><path d="M9.29,10.66a.15.15,0,0,0-.1-.18h0a.15.15,0,0,0-.18.1l-.21.7a.15.15,0,0,0,.1.18h0a.15.15,0,0,0,.18-.1Z" style="fill:#ff8a00"/><path d="M8.94,11.66h-.1a.35.35,0,0,1-.23-.43l.21-.7a.35.35,0,0,1,.43-.23.34.34,0,0,1,.2.17.35.35,0,0,1,0,.26l-.21.7A.35.35,0,0,1,8.94,11.66ZM9.1,10.6Z" style="fill:#ff8a00"/><path d="M11.57,9.22a.15.15,0,0,0-.18.1h0a.15.15,0,0,0,.1.18l.7.21a.15.15,0,0,0,.18-.1h0a.15.15,0,0,0-.1-.18Z" style="fill:#ff8a00"/><path d="M12.23,9.92h-.1l-.7-.21a.34.34,0,0,1-.2-.17.34.34,0,0,1,0-.26A.34.34,0,0,1,11.63,9l.7.21a.35.35,0,0,1-.1.68Z" style="fill:#ff8a00"/><path d="M7.22,7.88A.15.15,0,0,0,7,8H7a.15.15,0,0,0,.1.18l.7.21A.15.15,0,0,0,8,8.27H8a.15.15,0,0,0-.1-.18l-.7-.21Z" style="fill:#ff8a00"/><path d="M7.88,8.57h-.1l-.7-.21a.35.35,0,0,1,.2-.66L8,7.9a.35.35,0,0,1,.23.43.35.35,0,0,1-.33.25Z" style="fill:#ff8a00"/><path d="M8.48,6.39a.15.15,0,0,0-.2-.06h0a.15.15,0,0,0-.06.2l.34.64a.15.15,0,0,0,.2.06h0A.15.15,0,0,0,8.82,7Z" style="fill:#ff8a00"/><path d="M8.69,7.45a.34.34,0,0,1-.3-.18L8,6.62a.35.35,0,0,1,.61-.33h0L9,6.94a.35.35,0,0,1-.14.47A.34.34,0,0,1,8.69,7.45Z" style="fill:#ff8a00"/><path d="M12.06,7.48a.15.15,0,0,1,.2.06h0a.15.15,0,0,1-.06.2l-.64.34a.15.15,0,0,1-.2-.06h0a.15.15,0,0,1,.06-.2Z" style="fill:#ff8a00"/><path d="M11.48,8.3l-.1,0a.34.34,0,0,1-.06-.63L12,7.3a.35.35,0,0,1,.47.14.34.34,0,0,1,0,.26.34.34,0,0,1-.17.2l-.64.34A.34.34,0,0,1,11.48,8.3Z" style="fill:#ff8a00"/><path d="M7.35,10.09a.15.15,0,0,1-.2-.06h0a.15.15,0,0,1,.06-.2l.64-.34a.15.15,0,0,1,.2.06h0a.15.15,0,0,1-.06.2Z" style="fill:#ff8a00"/><path d="M7.28,10.31l-.1,0a.34.34,0,0,1-.06-.63l.64-.34a.34.34,0,0,1,.26,0,.34.34,0,0,1,.06.64l-.64.34A.35.35,0,0,1,7.28,10.31Zm.62-.74h0Z" style="fill:#ff8a00"/><path d="M10.93,11.18a.15.15,0,0,0,.2.06h0a.15.15,0,0,0,.06-.2l-.34-.64a.15.15,0,0,0-.2-.06h0a.15.15,0,0,0-.06.2Z" style="fill:#ff8a00"/><path d="M11.06,11.45a.35.35,0,0,1-.3-.18h0l-.34-.64A.35.35,0,1,1,11,10.3l.34.64a.35.35,0,0,1-.3.51Zm0-.37h0Zm-.44-.59h0Z" style="fill:#ff8a00"/><circle cx="9.75" cy="8.81" r="1.35" style="fill:#ff8a00"/><path d="M15.3,9a2.57,2.57,0,0,1,1,.34h0l.07,0h.08l.07,0h0l.05,0h0v0h0a2.58,2.58,0,0,1,.87-.65.23.23,0,0,0-.2-.41,3.67,3.67,0,0,0-.92.63,3.66,3.66,0,0,0-1.07-.31A.23.23,0,0,0,15.3,9Z" style="fill:#999"/><path d="M21.7,7.38a2.57,2.57,0,0,1,.57.93h0v0h0l0,.06h0l.05,0h0l.06,0h.13a2.58,2.58,0,0,1,1.08.07.23.23,0,0,0,.11-.44A3.67,3.67,0,0,0,22.65,8,3.66,3.66,0,0,0,22,7.07a.23.23,0,0,0-.34.3Z" style="fill:#999"/><rect x="2.53" y="1.56" width="25.07" height="21.89" rx="2" ry="2" style="fill:none;stroke:#999;stroke-miterlimit:10"/><path d="M24.91,19.19H21a10.88,10.88,0,0,0-1.14-4.67A11.21,11.21,0,0,0,19,13.05a1.81,1.81,0,0,1,1.76.24.37.37,0,0,0,.45-.58,2.43,2.43,0,0,0-2-.47L19,12.3l0-.08a1.93,1.93,0,0,1,1.56-.88.37.37,0,0,0-.08-.73,2.62,2.62,0,0,0-2.11,1.24,2.38,2.38,0,0,0-.26.68,3,3,0,0,0-1.94.62,2.22,2.22,0,0,0-.64.79.37.37,0,1,0,.68.29,1.81,1.81,0,0,1,1.33-.91,2.22,2.22,0,0,0-.48,2.2.37.37,0,0,0,.68-.28c-.28-.66.29-1.39.65-1.77a10.51,10.51,0,0,1,.83,1.4A10,10,0,0,1,20.29,19l-.17-.07a3.52,3.52,0,0,0-2.9,0L17,19V17.61h.21a.37.37,0,0,0,.21-.67L12.87,13.4a.37.37,0,0,0-.45,0L7.85,17a.37.37,0,0,0,.23.66h.21v1a33.08,33.08,0,0,0-3.68.29c-.21.1-.37.16-.37.37a.37.37,0,0,0,.37.37c.58,0,3.84-.47,4.79,0a3.2,3.2,0,0,0,1.45.31,3.2,3.2,0,0,0,1.45-.31,2.47,2.47,0,0,1,1.16-.25,2.47,2.47,0,0,1,1.16.25,3.52,3.52,0,0,0,2.9,0,2.79,2.79,0,0,1,2.32,0c.77.43,4.35.31,5.08.31a.37.37,0,1,0,0-.73Zm-12.26-5,3.5,2.73h-7Zm2.25,4.79a3.2,3.2,0,0,0-1.45-.31,3.2,3.2,0,0,0-1.45.31,2.47,2.47,0,0,1-1.16.25,2.47,2.47,0,0,1-1.16-.25A3.57,3.57,0,0,0,9,18.71v-1.1h7.26v1.57h-.22A2.47,2.47,0,0,1,14.9,18.94Z" style="fill:#999"/></svg>