<svg id="Layer_1" data-name="Layer 1" xmlns="http://www.w3.org/2000/svg" viewBox="0 0 30 25"><title>icon_barchart</title><path d="M26.42,23.21a.71.71,0,0,1-.71.71H4.29a.71.71,0,0,1-.71-.71V1.79A.71.71,0,1,1,5,1.79V5.36h.71a.71.71,0,0,1,0,1.43H5V9.64h.71a.71.71,0,1,1,0,1.43H5v2.86h.71a.71.71,0,0,1,0,1.43H5v2.86h.71a.71.71,0,0,1,0,1.43H5v2.86h20.7A.71.71,0,0,1,26.42,23.21Z" style="fill:#999"/><path d="M23.09,20.54a1.83,1.83,0,0,1-1.83-1.83V5.43a1.83,1.83,0,1,1,3.66,0V18.71A1.83,1.83,0,0,1,23.09,20.54Zm0-15.93a.83.83,0,0,0-.83.83V18.71a.83.83,0,1,0,1.66,0V5.43A.83.83,0,0,0,23.09,4.61Zm-4,15.93a1.83,1.83,0,0,1-1.83-1.83V8.09a1.83,1.83,0,1,1,3.65,0V18.71A1.83,1.83,0,0,1,19.11,20.54Zm0-13.28a.83.83,0,0,0-.83.83V18.71a.83.83,0,1,0,1.65,0V8.09A.83.83,0,0,0,19.11,7.26Zm-4,13.28a1.83,1.83,0,0,1-1.83-1.83v-8a1.83,1.83,0,1,1,3.66,0v8A1.83,1.83,0,0,1,15.13,20.54Zm0-10.62a.83.83,0,0,0-.83.83v8a.83.83,0,1,0,1.66,0v-8A.83.83,0,0,0,15.13,9.92Zm-4,10.62a1.83,1.83,0,0,1-1.83-1.83v-4a1.83,1.83,0,0,1,3.66,0v4A1.83,1.83,0,0,1,11.15,20.54Zm0-6.64a.83.83,0,0,0-.83.83v4a.83.83,0,1,0,1.66,0v-4A.83.83,0,0,0,11.15,13.9Z" style="fill:#ff8a00"/></svg>