<svg id="Layer_1" data-name="Layer 1" xmlns="http://www.w3.org/2000/svg" viewBox="0 0 30 25"><title>icon_instant_graphs</title><path d="M23.25,17.35a.42.42,0,0,0-.42.42v1.66a.42.42,0,0,0,.83,0V17.76A.42.42,0,0,0,23.25,17.35Z" style="fill:#ff8a00"/><path d="M26.57,16.69l.12.12a.42.42,0,0,0,.59-.59l-.83-.83a.42.42,0,0,0-.59.59l.12.12-.11.11a4.14,4.14,0,0,0-2.21-.92v-.44h.42a.42.42,0,0,0,0-.83H22.41a.42.42,0,1,0,0,.83h.42v.44a4.14,4.14,0,0,0-2.21.92l-.11-.11.12-.12a.42.42,0,1,0-.59-.59l-.83.83a.42.42,0,1,0,.59.59l.12-.12.11.11a4.16,4.16,0,1,0,6.44,0Zm-2.91,6v-.39a.42.42,0,0,0-.83,0v.39a3.33,3.33,0,0,1-2.88-2.88h.39a.42.42,0,1,0,0-.83h-.39a3.32,3.32,0,0,1,.95-1.93h0a3.32,3.32,0,0,1,1.93-.95v.39a.42.42,0,1,0,.83,0v-.39a3.32,3.32,0,0,1,1.93.95h0A3.32,3.32,0,0,1,26.54,19h-.39a.42.42,0,0,0,0,.83h.39A3.33,3.33,0,0,1,23.66,22.72Z" style="fill:#ff8a00"/><path d="M17.3,17.92a6.81,6.81,0,0,1,.41-1.59V8.39a1.37,1.37,0,1,0-2.75,0v11a1.37,1.37,0,0,0,2.44.86A6.78,6.78,0,0,1,17.3,17.92Z" style="fill:#999"/><path d="M21.84,12.37V5.64a1.37,1.37,0,0,0-2.75,0v8.51A6.82,6.82,0,0,1,21.84,12.37Z" style="fill:#999"/><path d="M8.1,20.76a1.37,1.37,0,0,0,1.37-1.37V15.26a1.37,1.37,0,0,0-2.75,0v4.12A1.37,1.37,0,0,0,8.1,20.76Z" style="fill:#999"/><path d="M12.22,20.76a1.37,1.37,0,0,0,1.37-1.37V11.14a1.37,1.37,0,1,0-2.75,0v8.25A1.37,1.37,0,0,0,12.22,20.76Z" style="fill:#999"/><path d="M18.13,22.13H4V19.39h.69a.69.69,0,0,0,0-1.37H4V15.26h.69a.69.69,0,1,0,0-1.37H4V11.14h.69a.69.69,0,0,0,0-1.37H4V7h.69a.69.69,0,0,0,0-1.37H4V2.21a.69.69,0,0,0-1.37,0V22.82a.69.69,0,0,0,.69.69H19.14A6.83,6.83,0,0,1,18.13,22.13Z" style="fill:#999"/><path d="M17.71,16.33a6.65,6.65,0,0,0-.31,3.91,1.36,1.36,0,0,0,.31-.86Z" style="fill:#999"/></svg>