<svg id="Layer_1" data-name="Layer 1" xmlns="http://www.w3.org/2000/svg" viewBox="0 0 30 25"><title>icon_livemaps</title><path d="M27,.73a.41.41,0,0,0-.45,0l-7.49,4-7.49-4a0,0,0,0,1,0,0h-.32L3.06,3.41a.55.55,0,0,0-.32.45V23.39a.56.56,0,0,0,.18.36.65.65,0,0,0,.27.09.17.17,0,0,0,.14,0l8-2.63L19,24.29s.09,0,.14,0h.23L27,20.25a.48.48,0,0,0,.23-.41V1.14A.48.48,0,0,0,27,.73ZM18.68,15.12v8l-6.81-2.82V14.4l-.91.24v5.7L3.69,22.75V4.18h0l7.26-2.41,0,12.35c.39,0,.57.09.93.09V1.91L18.68,5.5Zm7.67,4.36-6.81,3.59V5.5l6.81-3.59Z" style="fill:#999"/><path d="M7.74,4.32A2.25,2.25,0,0,0,5.46,6.59,2.28,2.28,0,0,0,7.28,8.81v1a.45.45,0,0,0,.91,0v-1A2.28,2.28,0,0,0,10,6.59,2.25,2.25,0,0,0,7.74,4.32Zm0,3.63A1.36,1.36,0,1,1,9.1,6.59,1.34,1.34,0,0,1,7.74,7.95Z" style="fill:#ff8a00"/><path d="M23.22,12.81s.09,0,.18,0a.4.4,0,0,0,.41-.27,10.61,10.61,0,0,0,.5-1.82.46.46,0,1,0-.91-.18,15,15,0,0,1-.45,1.68A.44.44,0,0,0,23.22,12.81Z" style="fill:#ff8a00"/><path d="M8.55,14.9A6.5,6.5,0,0,0,7.1,16.17a.44.44,0,0,0,0,.64.33.33,0,0,0,.27.09.41.41,0,0,0,.36-.18,4.17,4.17,0,0,1,1.27-1.09A.45.45,0,0,0,9.19,15,.54.54,0,0,0,8.55,14.9Z" style="fill:#ff8a00"/><path d="M6.65,17.62a.45.45,0,0,0-.59.23,7.41,7.41,0,0,0-.59,1.86.45.45,0,0,0,.41.5h0a.48.48,0,0,0,.45-.41,5.81,5.81,0,0,1,.5-1.59A.45.45,0,0,0,6.65,17.62Z" style="fill:#ff8a00"/><path d="M21.08,15.53a.41.41,0,0,0,.23,0,5.14,5.14,0,0,0,1.54-1.27.45.45,0,0,0-.73-.54,4.42,4.42,0,0,1-1.23,1,.42.42,0,0,0-.18.59A.4.4,0,0,0,21.08,15.53Z" style="fill:#ff8a00"/><path d="M16,14.49a2.7,2.7,0,0,0-.32-.14s0,0-.09,0c-.5-.14-1-.23-1.45-.32a.44.44,0,1,0-.14.86,7.56,7.56,0,0,1,1.32.27,1.08,1.08,0,0,0,.32.14.27.27,0,0,0,.18,0,.4.4,0,0,0,.41-.27A.41.41,0,0,0,16,14.49Z" style="fill:#ff8a00"/><path d="M24,9.26h0a.49.49,0,0,0,.5-.41c0-.45,0-.91,0-1.36V7a.45.45,0,0,0-.91,0v.45a12.33,12.33,0,0,1,0,1.32A.46.46,0,0,0,24,9.26Z" style="fill:#ff8a00"/><path d="M6.51,13.26a.44.44,0,0,0,.64,0l.59-.59.59.59a.44.44,0,0,0,.64,0,.44.44,0,0,0,0-.64L8.37,12,9,11.44a.45.45,0,0,0-.64-.64l-.59.59-.59-.59a.45.45,0,1,0-.64.64L7.1,12l-.59.59A.44.44,0,0,0,6.51,13.26Z" style="fill:#999"/><path d="M12.26,13.84a2.7,2.7,0,0,0-.35,0s-.06,0-.1,0c-.51.07-1,.18-1.46.27a.44.44,0,0,0,.21.85,7.56,7.56,0,0,1,1.32-.26,1.08,1.08,0,0,0,.35,0,.27.27,0,0,0,.19,0,.4.4,0,0,0,.27-.41A.41.41,0,0,0,12.26,13.84Z" style="fill:#ff8a00"/></svg>