<svg id="Layer_1" data-name="Layer 1" xmlns="http://www.w3.org/2000/svg" viewBox="0 0 30 25"><title>icon_flow</title><path d="M6,15.89a.67.67,0,0,1-.46-.18L3,13.3a.67.67,0,0,1,0-.95L5.33,9.74a.67.67,0,0,1,.95,0l2.61,2.41a.67.67,0,0,1,0,.95L6.53,15.67A.67.67,0,0,1,6,15.89Z" style="fill:#ff8a00"/><polygon points="10.38 22.41 5.93 22.41 5.93 18.96 6.4 18.96 6.4 21.94 10.38 21.94 10.38 22.41" style="fill:#999;stroke:#999;stroke-miterlimit:10;stroke-width:0.5px"/><path d="M6.17,17.55a7.08,7.08,0,0,0,1.11,2l-1.11-.4-1.11.4A7.08,7.08,0,0,0,6.17,17.55Z" style="fill:#999;stroke:#999;stroke-miterlimit:10;stroke-width:0.5px"/><polygon points="25.38 22.41 20.93 22.41 20.93 21.94 24.91 21.94 24.91 18.96 25.38 18.96 25.38 22.41" style="fill:#999;stroke:#999;stroke-miterlimit:10;stroke-width:0.5px"/><path d="M25.14,17.55a7.08,7.08,0,0,0,1.11,2l-1.11-.4-1.11.4A7.08,7.08,0,0,0,25.14,17.55Z" style="fill:#999;stroke:#999;stroke-miterlimit:10;stroke-width:0.5px"/><polygon points="25.26 6.87 24.79 6.87 24.79 3.89 20.81 3.89 20.81 3.42 25.26 3.42 25.26 6.87" style="fill:#999;stroke:#999;stroke-miterlimit:10;stroke-width:0.5px"/><path d="M25,8.29a7.08,7.08,0,0,0-1.11-2l1.11.4,1.11-.4A7.08,7.08,0,0,0,25,8.29Z" style="fill:#999;stroke:#999;stroke-miterlimit:10;stroke-width:0.5px"/><polygon points="6.29 6.87 5.82 6.87 5.82 3.42 10.26 3.42 10.26 3.89 6.29 3.89 6.29 6.87" style="fill:#999;stroke:#999;stroke-miterlimit:10;stroke-width:0.5px"/><path d="M6.05,8.29a7.08,7.08,0,0,0-1.11-2l1.11.4,1.11-.4A7.08,7.08,0,0,0,6.05,8.29Z" style="fill:#999;stroke:#999;stroke-miterlimit:10;stroke-width:0.5px"/><rect x="23.03" y="9.52" width="4.22" height="6.85" rx="2.11" ry="2.11" style="fill:#ff8a00"/><path d="M17.36,6.15H13.7a2.5,2.5,0,0,1-2.5-2.5V3.17A2.5,2.5,0,0,1,13.7.67h3.66a2.5,2.5,0,0,1,2.5,2.5v.48A2.5,2.5,0,0,1,17.36,6.15ZM13.7,1.67a1.5,1.5,0,0,0-1.5,1.5v.48a1.5,1.5,0,0,0,1.5,1.5h3.66a1.5,1.5,0,0,0,1.5-1.5V3.17a1.5,1.5,0,0,0-1.5-1.5Z" style="fill:#ff8a00"/><path d="M17.48,24.64H13.83a2.5,2.5,0,0,1-2.5-2.5v-.48a2.5,2.5,0,0,1,2.5-2.5h3.66a2.5,2.5,0,0,1,2.5,2.5v.48A2.5,2.5,0,0,1,17.48,24.64Zm-3.66-4.48a1.5,1.5,0,0,0-1.5,1.5v.48a1.5,1.5,0,0,0,1.5,1.5h3.66a1.5,1.5,0,0,0,1.5-1.5v-.48a1.5,1.5,0,0,0-1.5-1.5Z" style="fill:#ff8a00"/></svg>