<svg id="Layer_1" data-name="Layer 1" xmlns="http://www.w3.org/2000/svg" viewBox="0 0 30 25"><title>icons_richtext</title><polygon points="21.95 9.26 21.95 8.81 20.25 8.81 20.25 9.26 20.9 9.26 20.9 16.78 20.25 16.78 20.25 17.23 21.95 17.23 21.95 16.78 21.3 16.78 21.3 9.26 21.95 9.26" style="fill:#ff8a00;stroke:#ff8a00;stroke-miterlimit:10;stroke-width:0.25px"/><path d="M8.28,15.41l2-5.08A.78.78,0,0,1,11,9.77h.07a.77.77,0,0,1,.73.56l2,5.08a.76.76,0,0,1,.07.29.64.64,0,0,1-.6.68.65.65,0,0,1-.6-.49l-.38-1H9.76l-.4,1.06a.59.59,0,0,1-1.16-.22A.83.83,0,0,1,8.28,15.41Zm3.53-1.79L11,11.49l-.79,2.13Z" style="fill:#ff8a00"/><path d="M14.46,14.9v0c0-1.08.73-1.58,1.76-1.58a2.79,2.79,0,0,1,1.07.2v-.08a.83.83,0,0,0-.94-.9,2.54,2.54,0,0,0-.86.14.47.47,0,0,1-.18,0,.54.54,0,0,1-.51-.57.58.58,0,0,1,.33-.54,3.42,3.42,0,0,1,1.4-.26,1.88,1.88,0,0,1,1.48.55,2.33,2.33,0,0,1,.47,1.58v2.25a.64.64,0,0,1-.6.67.59.59,0,0,1-.6-.58h0a1.6,1.6,0,0,1-1.32.63A1.43,1.43,0,0,1,14.46,14.9Zm2.85-.32v-.25a1.74,1.74,0,0,0-.79-.18c-.53,0-.86.24-.86.68v0a.6.6,0,0,0,.68.6A.88.88,0,0,0,17.3,14.58Z" style="fill:#ff8a00"/><path d="M5.05,21.19a.5.5,0,0,1-.5-.5V1.09a.5.5,0,0,1,.5-.5H18.12a.5.5,0,1,1,0,1H5.55v19.1A.5.5,0,0,1,5.05,21.19Z" style="fill:#ff8a00"/><path d="M19.15,2.13H6.27V23.91H24.95V7.43Zm.23,1.24,4.21,3.84H19.38ZM7.06,23.18V2.86H18.59V7.94h5.56V23.18Z" style="fill:#999;stroke:#999;stroke-miterlimit:10;stroke-width:0.25px"/></svg>