<?xml version="1.0" encoding="utf-8"?>
<!-- Generator: Adobe Illustrator 21.0.0, SVG Export Plug-In . SVG Version: 6.00 Build 0)  -->
<svg version="1.1" id="Layer_1" xmlns="http://www.w3.org/2000/svg" xmlns:xlink="http://www.w3.org/1999/xlink" x="0px" y="0px"
	 viewBox="0 0 24 24" style="enable-background:new 0 0 24 24;" xml:space="preserve">
<style type="text/css">
	.st0{fill:#F6F6F6;}
</style>
<g>
	<path class="st0" d="M3.8,20c2.1,2.2,5,3.5,8.2,3.5c6.3,0,11.5-5.1,11.5-11.5S18.3,0.5,12,0.5S0.6,5.7,0.6,12c0,3,1.2,5.8,3.1,7.8
		C3.7,19.9,3.7,19.9,3.8,20z M12,22.1c-2.5,0-4.8-0.9-6.5-2.4c3-1,4.1-2.2,4.5-3c0.6,0.2,1.2,0.4,1.9,0.4c0,0,0,0,0,0c0,0,0,0,0.1,0
		c0,0,0,0,0,0c0.8,0,1.4-0.2,2-0.5c0.4,0.8,1.5,2,4.5,3C16.8,21.2,14.5,22.1,12,22.1z M8.3,9.9C8.3,9.9,8.3,9.9,8.3,9.9
		c0.2-3.5,2.7-3.8,3.5-3.8c0,0,0.1,0,0.1,0c0,0,0,0,0.1,0c0,0,0,0,0.1,0c0.8,0,3.3,0.3,3.5,3.7c0,0,0,0,0,0c0,0,0.3,3.2-1.2,4.9
		c-0.6,0.7-1.4,1-2.4,1c0,0,0,0,0,0l0,0c0,0,0,0,0,0c-1,0-1.8-0.3-2.4-1C8,13.1,8.3,9.9,8.3,9.9z M12,1.9c5.6,0,10.1,4.5,10.1,10.1
		c0,2.6-1,4.9-2.5,6.7c-4.3-1.3-4.5-2.8-4.5-2.8c0,0,0,0,0,0h0c0.1-0.1,0.2-0.2,0.2-0.2c1.8-2.1,1.5-5.6,1.5-5.9
		c-0.2-3.7-2.7-5-4.8-5c0,0-0.1,0-0.1,0c0,0-0.1,0-0.1,0c-2.1,0-4.6,1.3-4.8,5c0,0.3-0.3,3.9,1.5,5.9c0.1,0.1,0.2,0.2,0.3,0.3
		c-0.1,0.4-0.8,1.6-4.4,2.7c-1.6-1.8-2.5-4.1-2.5-6.7C1.9,6.4,6.4,1.9,12,1.9z"/>
</g>
</svg>
