<svg id="Layer_1" data-name="Layer 1" xmlns="http://www.w3.org/2000/svg" viewBox="0 0 30 25"><title>icons_sankeydiagram</title><path d="M11.46,8.26h-.29V7.47c.75,0,1.3.14,1.9-.32.64-.88.64-1.5,1.27-2.11.84-.8,2.84-.72,3.05-.75l0,.76a3.79,3.79,0,0,0-2.58.59,3.38,3.38,0,0,0-.61,1.05,4.55,4.55,0,0,1-.61,1c-.24.27-.53.42-1.32.48C11.93,8.25,11.63,8.26,11.46,8.26Z" style="fill:#999"/><path d="M11.5,8.62H11V9.4c.75,0,1.69-.13,2.08.33.58.69.64,1.5,1.27,2.11.84.8,2.84.72,3.05.75l0-.76a3.79,3.79,0,0,1-2.58-.59,3.38,3.38,0,0,1-.61-1.05,4.55,4.55,0,0,0-.61-1c-.24-.27-.53-.42-1.32-.48C12,8.62,11.68,8.62,11.5,8.62Z" style="fill:#999"/><path d="M11.17,16.69v1.49a2.13,2.13,0,0,1,2,1.06c.64.88.53,1.18,1.16,1.79.84.8,2.85.8,3.07.82V20.34c-2.75,0-2.65-2-3.78-2.89A3.83,3.83,0,0,0,11.17,16.69Z" style="fill:#999"/><path d="M11.17,16.45v-.16c.15,0,1.52.11,1.9-.32s.67-1.46,1.3-2.06c.84-.8,1.71-.74,3-.79v.15a4.08,4.08,0,0,0-2.84.62c-.75.64-1,1.68-1.38,2.15S11.17,16.45,11.17,16.45Z" style="fill:#999"/><path d="M11.61,16.58l-.45,0h-.11v-.38h.17c1.26.06,1.64-.15,1.75-.28a3.92,3.92,0,0,0,.43-.74,4.81,4.81,0,0,1,.88-1.33A3.54,3.54,0,0,1,17,13h.52v.37H17a3.34,3.34,0,0,0-2.36.6,4,4,0,0,0-.91,1.35,3.61,3.61,0,0,1-.46.79A2.33,2.33,0,0,1,11.61,16.58Z" style="fill:#999"/><path d="M11.67,10.76H4.91v-5h6.75Zm-5.75-1h4.75v-3H5.91Z" style="fill:#ff8a00"/><path d="M11.67,19.77H4.91v-5h6.75Zm-5.75-1h4.75v-3H5.91Z" style="fill:#ff8a00"/><path d="M23.64,6.85H16.89v-5h6.75Zm-5.75-1h4.75v-3H17.89Z" style="fill:#ff8a00"/><path d="M23.64,15.08H16.89v-5h6.75Zm-5.75-1h4.75v-3H17.89Z" style="fill:#ff8a00"/><path d="M23.64,23.78H16.89v-5h6.75Zm-5.75-1h4.75v-3H17.89Z" style="fill:#ff8a00"/></svg>