<svg id="Layer_1" data-name="Layer 1" xmlns="http://www.w3.org/2000/svg" viewBox="0 0 30 25"><title>icons_prfrmnc_graphics</title><rect x="7.51" y="10.97" width="2.9" height="6.5" style="fill:#ff8a00"/><path d="M10.44,17.5h-3V10.93h3Zm-2.9-.07h2.83V11H7.54Z" style="fill:#ff8a00"/><rect x="12.13" y="13.51" width="2.9" height="3.71" style="fill:#ff8a00"/><path d="M15.06,17.26h-3V13.48h3Zm-2.9-.07H15V13.55H12.17Z" style="fill:#ff8a00"/><rect x="16.76" y="8.13" width="2.9" height="8.31" style="fill:#ff8a00"/><path d="M19.69,16.48h-3V8.1h3Zm-2.9-.07h2.83V8.17H16.79Z" style="fill:#ff8a00"/><rect x="21.38" y="7.55" width="2.9" height="6.4" style="fill:#ff8a00"/><path d="M24.31,14h-3V7.51h3Zm-2.9-.07h2.83V7.58H21.42Z" style="fill:#ff8a00"/><path d="M10.26,20.43H7.65A.42.42,0,0,1,7.23,20V7.19a.42.42,0,0,1,.42-.42h2.62a.42.42,0,0,1,.42.42V20A.42.42,0,0,1,10.26,20.43Zm-2.48-.56h2.34V7.33H7.79Z" style="fill:#999"/><path d="M14.89,20.43H12.27a.42.42,0,0,1-.42-.42V10.66a.42.42,0,0,1,.42-.42h2.62a.42.42,0,0,1,.42.42V20A.42.42,0,0,1,14.89,20.43Zm-2.48-.56h2.34V10.8H12.41Z" style="fill:#999"/><path d="M19.51,20.43H16.9a.42.42,0,0,1-.42-.42V4.89a.42.42,0,0,1,.42-.42h2.62a.42.42,0,0,1,.42.42V20A.42.42,0,0,1,19.51,20.43ZM17,19.87h2.34V5H17Z" style="fill:#999"/><path d="M24.14,20.43H21.52A.42.42,0,0,1,21.1,20V2.67a.42.42,0,0,1,.42-.42h2.62a.42.42,0,0,1,.42.42V20A.42.42,0,0,1,24.14,20.43Zm-2.48-.56H24V2.81H21.66Z" style="fill:#999"/><polygon points="4.41 22.34 25.5 22.34 25.5 23.75 3 23.75 3 1.25 4.41 1.25 4.41 5.47 5.81 5.47 5.81 6.88 4.41 6.88 4.41 9.69 5.81 9.69 5.81 11.09 4.41 11.09 4.41 13.91 5.81 13.91 5.81 15.31 4.41 15.31 4.41 18.13 5.81 18.13 5.81 19.53 4.41 19.53 4.41 22.34" style="fill:#999"/></svg>