<?xml version="1.0" encoding="utf-8"?>
<!-- Generator: Adobe Illustrator 21.0.0, SVG Export Plug-In . SVG Version: 6.00 Build 0)  -->
<svg version="1.0" id="Layer_1" xmlns="http://www.w3.org/2000/svg" xmlns:xlink="http://www.w3.org/1999/xlink" x="0px" y="0px"
	 viewBox="0 0 17 14" enable-background="new 0 0 17 14" xml:space="preserve">
<g>
	<g>
		<path fill="#0099CC" d="M4.6,6.9c0.6-0.3,1.2-0.4,1.8-0.4h7.5V5c0-0.6-0.2-1-0.6-1.4c-0.4-0.4-0.9-0.6-1.4-0.6H6.9V2.6
			c0-0.6-0.2-1-0.6-1.4C5.9,0.8,5.5,0.6,4.9,0.6H2c-0.6,0-1,0.2-1.4,0.6C0.2,1.6,0,2.1,0,2.6v8.7c0,0,0,0.1,0,0.1c0,0.1,0,0.1,0,0.1
			l0-0.1l3.1-3.6C3.5,7.5,4,7.1,4.6,6.9z"/>
		<path fill="#0099CC" d="M16.8,7.7c-0.2-0.1-0.3-0.1-0.5-0.1H6.4C6,7.6,5.5,7.7,5.1,7.9C4.6,8.1,4.2,8.4,4,8.7l-3,3.6
			c-0.2,0.2-0.3,0.4-0.3,0.6c0,0.2,0.1,0.3,0.2,0.4c0.2,0.1,0.3,0.1,0.5,0.1h9.9c0.4,0,0.8-0.1,1.3-0.3c0.5-0.2,0.8-0.5,1.1-0.8
			l3-3.6C16.9,8.5,17,8.3,17,8.1C17,7.9,16.9,7.8,16.8,7.7z"/>
	</g>
</g>
</svg>
