<?xml version="1.0" encoding="utf-8"?>
<!-- Generator: Adobe Illustrator 21.0.0, SVG Export Plug-In . SVG Version: 6.00 Build 0)  -->
<svg version="1.0" id="Layer_1" xmlns="http://www.w3.org/2000/svg" xmlns:xlink="http://www.w3.org/1999/xlink" x="0px" y="0px"
	 viewBox="0 0 12 12" enable-background="new 0 0 12 12" xml:space="preserve">
<path fill="#0099CC" stroke="#0099CC" stroke-width="0.75" stroke-miterlimit="10" d="M11,10.5L8.4,7.7c0.7-0.8,1-1.8,1-2.8
	c0-2.4-2-4.4-4.4-4.4s-4.4,2-4.4,4.4s2,4.4,4.4,4.4c0.9,0,1.8-0.3,2.5-0.8l2.6,2.7c0.1,0.1,0.3,0.2,0.4,0.2c0.1,0,0.3-0.1,0.4-0.2
	C11.2,11.1,11.2,10.7,11,10.5z M5,1.6c1.8,0,3.3,1.5,3.3,3.3S6.8,8.2,5,8.2S1.7,6.7,1.7,4.9S3.2,1.6,5,1.6z"/>
</svg>
