<?xml version="1.0" encoding="utf-8"?>
<!-- Generator: Adobe Illustrator 21.0.0, SVG Export Plug-In . SVG Version: 6.00 Build 0)  -->
<svg version="1.1" id="Capa_1" xmlns="http://www.w3.org/2000/svg" xmlns:xlink="http://www.w3.org/1999/xlink" x="0px" y="0px"
	 viewBox="0 0 35 35" style="enable-background:new 0 0 35 35;" xml:space="preserve">
<style type="text/css">
	.st0{fill:#0099CC;}
</style>
<g>
	<g>
		<path class="st0" d="M31.5,32.2c0.4,0,0.7-0.3,0.7-0.7V9.7c0-0.2-0.1-0.4-0.3-0.6L24.8,3l0,0l0,0c0,0,0,0-0.1,0c0,0,0,0-0.1,0
			h-0.1c0,0,0,0-0.1,0h-0.1H3.5C3.1,3,2.8,3.3,2.8,3.7v27.9c0,0.4,0.3,0.7,0.7,0.7L31.5,32.2L31.5,32.2L31.5,32.2z M26.1,30.7H8.9
			V19.6c0-0.2,0.2-0.4,0.4-0.4h16.3c0.2,0,0.4,0.2,0.4,0.4v11.1H26.1z M12.6,4.3h10.9V12c0,0,0,0.1-0.1,0.1H12.7c0,0-0.1,0-0.1-0.1
			L12.6,4.3L12.6,4.3z M4.3,4.3h6.8V12c0,0.9,0.7,1.6,1.6,1.6h10.8c0.9,0,1.6-0.7,1.6-1.6V5.1l5.7,4.9v20.7h-3.2V19.6
			c0-1-0.8-1.9-1.9-1.9H9.3c-1,0-1.9,0.8-1.9,1.9v11.1H4.3V4.3z"/>
		<path class="st0" d="M16.6,7.5h3.3v2c0,0.4,0.3,0.7,0.7,0.7s0.7-0.3,0.7-0.7V6.8C21.3,6.4,21,6,20.6,6h-4c-0.4,0-0.7,0.3-0.7,0.7
			S16.2,7.5,16.6,7.5z"/>
		<path class="st0" d="M21.2,22.3h-7.4c-0.4,0-0.7,0.3-0.7,0.7s0.3,0.7,0.7,0.7h7.4c0.4,0,0.7-0.3,0.7-0.7S21.6,22.3,21.2,22.3z"/>
		<path class="st0" d="M21.2,26.3h-7.4c-0.4,0-0.7,0.3-0.7,0.7s0.3,0.7,0.7,0.7h7.4c0.4,0,0.7-0.3,0.7-0.7S21.6,26.3,21.2,26.3z"/>
	</g>
</g>
</svg>
