<svg id="Layer_1" data-name="Layer 1" xmlns="http://www.w3.org/2000/svg" viewBox="0 0 30 25"><title>icon_group_chart</title><path d="M12.13,8.79V8.68a2.44,2.44,0,0,0-1.42-.41H7.25a2.5,2.5,0,0,0-1.92.82A2.7,2.7,0,0,0,4.52,11V21.61H5l.13.11,3.67-4.26.09-.07a5.72,5.72,0,0,1,1.57-.93l0,0a4.29,4.29,0,0,1,2-.44h9.29V13.86A2.51,2.51,0,0,0,21,11.94c-.09-.09-.35,1-.4,1a1.14,1.14,0,0,1,.51.91V15.3H12.5a5,5,0,0,0-2.28.5,6.35,6.35,0,0,0-1.74,1L5.22,20.54V11a2,2,0,0,1,.61-1.42A1.82,1.82,0,0,1,7.25,9h3.46a1.82,1.82,0,0,1,1.42.61" style="fill:#999"/><path d="M12.31,8.81v0h0Z" style="fill:#999"/><path d="M12.13,9.49a.65.65,0,0,0,.18-.68l-.18-.13v.81Z" style="fill:#999"/><path d="M18.34,24.22H6.54a1.41,1.41,0,0,1-.75-.16L5.7,24a1,1,0,0,1-.34-.72,1.37,1.37,0,0,1,.46-1L9.37,18A3.19,3.19,0,0,1,10.82,17a4,4,0,0,1,1.68-.38H24.3a1.41,1.41,0,0,1,.75.16l.09.07a1,1,0,0,1,.34.72,1.37,1.37,0,0,1-.46,1l-3.55,4.27A4.08,4.08,0,0,1,20,23.84,4.45,4.45,0,0,1,18.34,24.22ZM6.15,23.46a.76.76,0,0,0,.39.06h11.8a3.76,3.76,0,0,0,1.42-.33,3.42,3.42,0,0,0,1.19-.88L24.5,18a.75.75,0,0,0,.28-.49c0-.07,0-.11-.09-.19a.76.76,0,0,0-.39-.06H12.5a3.31,3.31,0,0,0-1.39.32,2.6,2.6,0,0,0-1.18.83l-3.6,4.32a.75.75,0,0,0-.28.49C6.05,23.35,6.07,23.38,6.15,23.46Z" style="fill:#999"/><path d="M8.25,11.92c0,1.1.49,2,1.09,2s1.09-.9,1.09-2V5.38c0-1.1-.49-2-1.09-2s-1.09.9-1.09,2Z" style="fill:#999"/><path d="M12.19,7.94c.53-.47,1.09-1,1.23-1.17a1.15,1.15,0,0,0,.27-.63V3.78c0-1.1-.49-2-1.09-2s-1.11.9-1.14,2L11.26,12c0,1.1.58,2,1.34,2s.86-.73.22-1.63A4.67,4.67,0,0,1,12,9.49Z" style="fill:#999"/><path d="M14.71,5.48c0,.13.12.2.26.15l.71-.24a5.61,5.61,0,0,1,.61-.17l.39,0A.21.21,0,0,0,16.9,5V2.77c0-1.1-.49-2-1.09-2s-1.09.9-1.09,2v2.7Z" style="fill:#999"/><path d="M17.81,4.13V8.45h4.33A4.33,4.33,0,0,0,17.81,4.13Z" style="fill:#ff8a00"/><path d="M16.46,14.59a4.79,4.79,0,0,1,0-9.57h.46V9.34h4.33v.46A4.79,4.79,0,0,1,16.46,14.59ZM16,6a3.86,3.86,0,1,0,4.3,4.3H16Z" style="fill:#ff8a00"/></svg>