<svg id="Layer_1" data-name="Layer 1" xmlns="http://www.w3.org/2000/svg" viewBox="0 0 30 25"><title>icon_lists</title><path d="M23.7,1.91H6.83a.46.46,0,0,0-.49.42v20a.46.46,0,0,0,.49.42H19.66a.54.54,0,0,0,.35-.12l4-3.42a.39.39,0,0,0,.14-.29V2.33A.46.46,0,0,0,23.7,1.91ZM20.15,21.36v-2h2.37Zm3.06-2.84H19.65a.54.54,0,0,0-.35.12.39.39,0,0,0-.14.29v3H7.32V2.74H23.21Z" style="fill:#999;stroke:#999;stroke-miterlimit:10;stroke-width:0.25px"/><path d="M12.38,4.9a.41.41,0,0,0-.63,0l-1.3,1.44L10.13,6A.41.41,0,0,0,9.5,6a.53.53,0,0,0,0,.69l.64.71a.41.41,0,0,0,.63,0l1.62-1.79A.53.53,0,0,0,12.38,4.9Z" style="fill:#ff8a00"/><path d="M20.2,5.87H13.9a.53.53,0,0,0-.56.49.53.53,0,0,0,.56.49h6.3a.53.53,0,0,0,.56-.49A.53.53,0,0,0,20.2,5.87Z" style="fill:#999;stroke:#999;stroke-miterlimit:10;stroke-width:0.25px"/><path d="M12.38,9.65a.41.41,0,0,0-.63,0l-1.3,1.44-.32-.36a.41.41,0,0,0-.63,0,.53.53,0,0,0,0,.69l.64.71a.41.41,0,0,0,.63,0l1.62-1.79A.53.53,0,0,0,12.38,9.65Z" style="fill:#ff8a00"/><path d="M20.32,10.63H13.78a.49.49,0,0,0,0,1h6.54a.49.49,0,0,0,0-1Z" style="fill:#999;stroke:#999;stroke-miterlimit:10;stroke-width:0.25px"/><path d="M12.38,14.38a.41.41,0,0,0-.63,0l-1.3,1.44-.32-.36a.41.41,0,0,0-.63,0,.53.53,0,0,0,0,.69l.64.71a.41.41,0,0,0,.63,0l1.62-1.79A.53.53,0,0,0,12.38,14.38Z" style="fill:#ff8a00"/><path d="M20.32,15.36H13.78a.49.49,0,0,0,0,1h6.54a.49.49,0,0,0,0-1Z" style="fill:#999;stroke:#999;stroke-miterlimit:10;stroke-width:0.25px"/></svg>