<?xml version="1.0" encoding="utf-8"?>
<!-- Generator: Adobe Illustrator 21.0.0, SVG Export Plug-In . SVG Version: 6.00 Build 0)  -->
<svg version="1.0" id="Layer_1" xmlns="http://www.w3.org/2000/svg" xmlns:xlink="http://www.w3.org/1999/xlink" x="0px" y="0px"
	 viewBox="0 0 16 16" enable-background="new 0 0 16 16" xml:space="preserve">
<g>
	<path fill="#009245" d="M8,0C3.6,0,0,3.6,0,8s3.6,8,8,8s8-3.6,8-8S12.4,0,8,0z M8,14.5c-3.6,0-6.5-2.9-6.5-6.5S4.4,1.5,8,1.5
		s6.5,2.9,6.5,6.5S11.6,14.5,8,14.5z"/>
	<path fill="#009245" d="M8,3.4c-0.5,0-1,0.4-1,1c0,0.5,0.4,1,1,1s1-0.4,1-1C9,3.8,8.5,3.4,8,3.4z"/>
	<path fill="#009245" d="M8.2,6.6c-0.4,0-0.8,0.4-0.8,0.8V12c0,0.4,0.4,0.8,0.8,0.8C8.7,12.8,9,12.5,9,12V7.3C9,6.9,8.7,6.6,8.2,6.6
		z"/>
</g>
</svg>
