<?xml version="1.0" encoding="utf-8"?>
<!-- Generator: Adobe Illustrator 21.0.0, SVG Export Plug-In . SVG Version: 6.00 Build 0)  -->
<svg version="1.0" id="Layer_1" xmlns="http://www.w3.org/2000/svg" xmlns:xlink="http://www.w3.org/1999/xlink" x="0px" y="0px"
	 viewBox="0 0 14 14" enable-background="new 0 0 14 14" xml:space="preserve">
<path fill="#FF3333" d="M9.9,0H4.1L0,4.1v5.8L4.1,14h5.8L14,9.9V4.1L9.9,0z M10.3,10.2c0.1,0.1,0.1,0.4,0,0.5
	c-0.1,0.1-0.4,0.1-0.5,0L6.9,7.7L4,10.7c-0.1,0.1-0.4,0.1-0.5,0c-0.1-0.1-0.1-0.4,0-0.5l2.9-2.9L3.5,4.3C3.4,4.2,3.4,4,3.5,3.8
	c0.1-0.1,0.4-0.1,0.5,0l2.9,2.9l2.9-2.9c0.1-0.1,0.4-0.1,0.5,0c0.1,0.1,0.1,0.4,0,0.5L7.4,7.3L10.3,10.2z"/>
<g id="Close">
	<path fill="#FFFFFF" d="M7.9,7.3l2.6-2.6c0.2-0.2,0.2-0.6,0-0.9c-0.2-0.2-0.6-0.2-0.9,0L7,6.4L4.4,3.8c-0.2-0.2-0.6-0.2-0.9,0
		C3.3,4,3.3,4.4,3.5,4.6l2.6,2.6L3.5,9.9c-0.2,0.2-0.2,0.6,0,0.9c0.2,0.2,0.6,0.2,0.9,0L7,8.1l2.6,2.6c0.2,0.2,0.6,0.2,0.9,0
		c0.2-0.2,0.2-0.6,0-0.9L7.9,7.3z"/>
</g>
</svg>
