<svg id="Layer_1" data-name="Layer 1" xmlns="http://www.w3.org/2000/svg" viewBox="0 0 30 25"><title>icon_piechart</title><path d="M24.26,6.52a8.27,8.27,0,0,0-3-3.74l-.19-.13h0a8.22,8.22,0,0,0-4.49-1.33.3.3,0,0,0-.3.3V2.8h0V4.28h0V5.76h0V7.23h0V8.71h0V9.6a.3.3,0,0,0,.3.3l.11,0,.83-.33h0a.29.29,0,0,0,.21-.08l2.41-1h0l2.46-1h0l1.5-.6a.3.3,0,0,0,.16-.38Zm-3,.89,1.86-1.86.23.41-1,1Zm-2.46,1,3.7-3.7.28.36L19.86,8Zm2.53-4.84L16.87,8V7.36l4.08-4.08Zm-4.45-.63L17.78,2l.54.1L16.87,3.56Zm0,1.48L19,2.29l.47.17L16.87,5Zm0,1.48L20,2.73l.42.23L16.87,6.52V5.88Zm.16-4-.16.16V1.92Zm-.16,6.91,4.9-4.9.33.32L17.39,9l-.52.21Z" style="fill:#ff8a00"/><path d="M23.63,9.16,14.8,12.69V3.18a.37.37,0,0,0-.37-.37A10.43,10.43,0,0,0,7,20.62,10.43,10.43,0,0,0,24.11,9.37.37.37,0,0,0,23.63,9.16Zm-9.58,3L8.86,5.32a9.63,9.63,0,0,1,5.2-1.76v8.58Zm.37,10.79A9.68,9.68,0,0,1,8.26,5.77l5.86,7.7h0v0l0,0h0l0,0h0l0,0h.32l9-3.6a9.69,9.69,0,0,1-9.13,12.94Z" style="fill:#999;stroke:#999;stroke-miterlimit:10;stroke-width:0.5px"/></svg>