<svg id="Layer_1" data-name="Layer 1" xmlns="http://www.w3.org/2000/svg" viewBox="0 0 30 25"><title>icon_alert</title><path d="M25,23.56H5A1.28,1.28,0,0,1,3.75,22.3v-20A1.28,1.28,0,0,1,5,1.06H25a1.28,1.28,0,0,1,1.29,1.26v20A1.28,1.28,0,0,1,25,23.56ZM5,1.91a.43.43,0,0,0-.43.42v20a.43.43,0,0,0,.43.42H25a.43.43,0,0,0,.43-.42v-20A.43.43,0,0,0,25,1.91Z" style="fill:#999"/><path d="M23.67,13.74H20a.42.42,0,1,1,0-.84h3.67a.42.42,0,1,1,0,.84Z" style="fill:#999"/><path d="M23.67,11.18H20a.42.42,0,1,1,0-.84h3.67a.42.42,0,1,1,0,.84Z" style="fill:#999"/><path d="M23.67,8.24H20a.42.42,0,1,1,0-.84h3.67a.42.42,0,1,1,0,.84Z" style="fill:#999"/><path d="M23.46,5.46H19.79a.42.42,0,1,1,0-.84h3.67a.42.42,0,1,1,0,.84Z" style="fill:#999"/><path d="M23.67,17.23H6.6a.42.42,0,1,1,0-.84H23.67a.42.42,0,1,1,0,.84Z" style="fill:#999"/><path d="M23.67,20.35H6.6a.42.42,0,1,1,0-.84H23.67a.42.42,0,1,1,0,.84Z" style="fill:#999"/><path d="M13.34,7.17a1.15,1.15,0,0,0-2.12,0l-3,4.73c-.58.93-.16,1.7.94,1.7h6.14c1.1,0,1.52-.76.94-1.7Zm-1,.76a.39.39,0,0,1,.44.37c0,.72-.08,1.76-.08,2.48,0,.19-.21.27-.35.27S12,11,12,10.79c0-.72-.08-1.76-.08-2.48C11.9,8.07,12.1,7.94,12.35,7.94Zm0,4.72a.44.44,0,1,1,.44-.44A.44.44,0,0,1,12.34,12.66Z" style="fill:#ff8a00"/><path d="M12.35,11.06c.15,0,.35-.08.35-.27,0-.72.08-1.76.08-2.48a.39.39,0,0,0-.44-.37c-.25,0-.44.13-.44.37,0,.72.08,1.76.08,2.48C12,11,12.15,11.06,12.35,11.06Z" style="fill:#fff"/><circle cx="12.34" cy="12.22" r="0.44" style="fill:#fff"/></svg>