<?xml version="1.0" encoding="utf-8"?>
<!-- Generator: Adobe Illustrator 21.0.0, SVG Export Plug-In . SVG Version: 6.00 Build 0)  -->
<svg version="1.0" id="Layer_1" xmlns="http://www.w3.org/2000/svg" xmlns:xlink="http://www.w3.org/1999/xlink" x="0px" y="0px"
	 viewBox="0 0 14 14" enable-background="new 0 0 14 14" xml:space="preserve">
<path fill="#FFCC33" d="M7.7,0.7l1.6,3.2c0.1,0.2,0.3,0.4,0.6,0.4l3.5,0.5c0.6,0.1,0.9,0.8,0.4,1.3l-2.6,2.5C11,8.8,11,9.1,11,9.3
	l0.6,3.5c0.1,0.6-0.5,1.1-1.1,0.8l-3.2-1.7c-0.2-0.1-0.5-0.1-0.7,0l-3.2,1.7c-0.6,0.3-1.2-0.2-1.1-0.8L3,9.3c0-0.2,0-0.5-0.2-0.7
	L0.2,6.1C-0.2,5.7,0,4.9,0.6,4.9l3.5-0.5c0.2,0,0.5-0.2,0.6-0.4l1.6-3.2C6.6,0.2,7.4,0.2,7.7,0.7z"/>
</svg>
