<svg id="Layer_1" data-name="Layer 1" xmlns="http://www.w3.org/2000/svg" viewBox="0 0 30 25"><title>icon_table</title><path d="M12.55,22.73V20.22H15l.33-.79H12.55v-2.6h3.8l.54-.79H12.55V13.29h6l.77-.79H12.55v-3h5.94v3.12l.81-.15,0-3h6.09v2.92l.79,1V2.38a.92.92,0,0,0-.92-.92H2.37a.92.92,0,0,0-.92.92V22.62a.92.92,0,0,0,.4.76v.15h.33l.2,0H16.48l-.9-.81ZM19.28,2.25h6a.13.13,0,0,1,.13.13V5H19.28Zm0,3.59h6.09v2.9H19.28ZM12.55,2.25h5.94V5H12.55Zm0,3.59h5.94v2.9H12.55ZM5.09,22.73H2.3a.13.13,0,0,1-.06-.11v-2.4H5.09v2.51Zm0-3.3H2.23v-2.6H5.09v2.6Zm0-3.39H2.23V13.29H5.09V16Zm0-3.54H2.23v-3H5.09v3Zm0-3.76H2.23V5.84H5.09v2.9Zm6.66,14H5.88V20.22h5.87v2.51Zm0-3.3H5.88v-2.6h5.87v2.6Zm0-3.39H5.88V13.29h5.87V16Zm0-3.54H5.88v-3h5.87v3Zm0-3.76H5.88V5.84h5.87v2.9Zm0-3.7H5.88V2.25h5.87V5Z" style="fill:#999"/><path d="M23.39,13.16a1.15,1.15,0,0,0-2.12,0l-4.13,6.61c-.58.93-.16,1.7.94,1.7h8.48c1.1,0,1.52-.76.94-1.7Zm-1,1.33A.48.48,0,0,1,23,15c0,.89-.1,2.17-.1,3.06,0,.23-.25.33-.43.33S22,18.24,22,18c0-.89-.1-2.17-.1-3.06C21.87,14.66,22.11,14.49,22.41,14.49Zm0,5.81a.54.54,0,1,1,.54-.54A.54.54,0,0,1,22.41,20.31Z" style="fill:#ff8a00"/><path d="M22.41,18.34c.18,0,.43-.1.43-.33,0-.89.1-2.17.1-3.06a.48.48,0,0,0-.54-.46c-.31,0-.55.16-.55.46,0,.89.1,2.17.1,3.06C22,18.24,22.17,18.34,22.41,18.34Z" style="fill:#fff"/><circle cx="22.41" cy="19.76" r="0.54" style="fill:#fff"/><rect x="2.51" y="2.36" width="2.57" height="2.57" style="fill:#ff8a00"/></svg>